# xmcd CD database file
#
# Track frame offsets:
#	159
#	10789
#	24085
#	35082
#	45628
#	59085
#	71839
#	82413
#	93653
#	105971
#	115495
#	126131
#
# Disc length: 1830 seconds
#
# Revision: 1
# Processed by: cddbd v1.5.2PL0 Copyright (c) Steve Scherf et al.
# Submitted via: CDex 1.70beta2
#
DISCID=a507240c
DTITLE=Nat King Cole 納京高 - Spanish Flowers 花樣的年華
DYEAR=1900
DGENRE=Jazz
TTITLE0=Cosa Linda
TTITLE1=Cachito
TTITLE2=Perfidia
TTITLE3=El Choclo
TTITLE4=Quizas
TTITLE5=The Quiero, Dijiste
TTITLE6=Yo Vendo Unos Ojos Negros
TTITLE7=El Bodeguero.
TTITLE8=Acercate Mas
TTITLE9=Fantastico
TTITLE10=Adelita
TTITLE11=Nadie me ama.
EXTD=
EXTT0=
EXTT1=
EXTT2=
EXTT3=
EXTT4=
EXTT5=
EXTT6=
EXTT7=
EXTT8=
EXTT9=
EXTT10=
EXTT11=
PLAYORDER=
